<svg xmlns="http://www.w3.org/2000/svg" xmlns:xlink="http://www.w3.org/1999/xlink" width="1000" zoomAndPan="magnify" viewBox="0 0 750 749.999995" height="1000" preserveAspectRatio="xMidYMid meet" version="1.2"><defs><clipPath id="d03921c263"><path d="M 73.125 0 L 675 0 L 675 750 L 73.125 750 Z M 73.125 0 "/></clipPath><clipPath id="7d774f8824"><rect x="0" width="2" y="0" height="19"/></clipPath></defs><g id="ee474dbf9f"><g clip-rule="nonzero" clip-path="url(#d03921c263)"><path style=" stroke:none;fill-rule:nonzero;fill:#5170ff;fill-opacity:1;" d="M 674.710938 618.855469 L 658.832031 429.828125 C 658.777344 429.21875 658.667969 428.617188 658.496094 428.03125 C 658.324219 427.441406 658.09375 426.875 657.808594 426.332031 C 657.523438 425.789062 657.1875 425.28125 656.800781 424.804688 C 656.414062 424.328125 655.984375 423.894531 655.511719 423.507812 C 655.035156 423.117188 654.527344 422.777344 653.988281 422.492188 C 653.445312 422.203125 652.878906 421.972656 652.292969 421.796875 C 651.703125 421.625 651.105469 421.507812 650.496094 421.457031 C 649.882812 421.402344 649.273438 421.40625 648.664062 421.476562 L 589.3125 428.105469 C 588.769531 428.167969 588.238281 428.277344 587.714844 428.429688 C 587.191406 428.585938 586.683594 428.789062 586.199219 429.035156 C 585.710938 429.28125 585.25 429.566406 584.8125 429.894531 C 584.375 430.222656 583.972656 430.589844 583.601562 430.988281 C 583.230469 431.390625 582.898438 431.820312 582.601562 432.28125 C 582.308594 432.738281 582.054688 433.222656 581.847656 433.726562 C 581.640625 434.230469 581.476562 434.75 581.363281 435.285156 C 581.246094 435.816406 581.179688 436.355469 581.160156 436.902344 L 580.816406 446.496094 L 534.53125 451.027344 L 498.925781 452.90625 L 404.203125 422.84375 C 402.796875 422.398438 401.371094 422.292969 399.917969 422.535156 L 310.472656 437.402344 C 309.40625 437.578125 308.402344 437.933594 307.460938 438.464844 C 306.519531 438.996094 305.699219 439.671875 304.996094 440.496094 L 302.351562 443.59375 L 237.941406 452.84375 L 221.394531 451.023438 L 164.410156 441.09375 L 163.90625 430.921875 C 163.878906 430.378906 163.804688 429.84375 163.679688 429.3125 C 163.558594 428.78125 163.390625 428.265625 163.175781 427.765625 C 162.960938 427.265625 162.703125 426.785156 162.402344 426.332031 C 162.105469 425.875 161.765625 425.453125 161.390625 425.054688 C 161.015625 424.660156 160.609375 424.304688 160.171875 423.980469 C 159.730469 423.65625 159.269531 423.375 158.777344 423.136719 C 158.289062 422.898438 157.785156 422.703125 157.261719 422.550781 C 156.738281 422.402344 156.203125 422.300781 155.660156 422.246094 L 96.207031 416.21875 C 95.59375 416.15625 94.980469 416.15625 94.367188 416.21875 C 93.753906 416.28125 93.148438 416.402344 92.5625 416.585938 C 91.972656 416.769531 91.40625 417.007812 90.863281 417.304688 C 90.324219 417.601562 89.816406 417.949219 89.347656 418.351562 C 88.875 418.75 88.449219 419.191406 88.066406 419.675781 C 87.6875 420.160156 87.355469 420.679688 87.082031 421.230469 C 86.804688 421.78125 86.582031 422.355469 86.421875 422.953125 C 86.261719 423.546875 86.160156 424.152344 86.121094 424.769531 L 73.398438 625.050781 C 73.363281 625.652344 73.382812 626.246094 73.460938 626.839844 C 73.539062 627.4375 73.675781 628.015625 73.871094 628.585938 C 74.0625 629.152344 74.308594 629.695312 74.609375 630.214844 C 74.90625 630.738281 75.253906 631.222656 75.648438 631.671875 C 76.042969 632.125 76.480469 632.535156 76.953125 632.902344 C 77.429688 633.265625 77.933594 633.585938 78.472656 633.851562 C 79.007812 634.117188 79.566406 634.332031 80.144531 634.488281 C 80.722656 634.648438 81.3125 634.746094 81.910156 634.789062 L 164.003906 640.632812 C 164.21875 640.648438 164.4375 640.65625 164.65625 640.65625 C 165.277344 640.65625 165.890625 640.59375 166.5 640.46875 C 167.109375 640.34375 167.703125 640.15625 168.273438 639.914062 C 168.84375 639.667969 169.386719 639.367188 169.898438 639.011719 C 170.40625 638.65625 170.878906 638.253906 171.304688 637.804688 C 171.734375 637.351562 172.113281 636.863281 172.445312 636.335938 C 172.773438 635.808594 173.046875 635.25 173.261719 634.667969 C 173.476562 634.085938 173.632812 633.484375 173.726562 632.871094 C 173.824219 632.257812 173.855469 631.636719 173.824219 631.015625 L 173.484375 624.1875 L 189.679688 627.007812 L 219.960938 641.867188 C 219.78125 643.386719 219.714844 644.910156 219.761719 646.433594 C 219.804688 647.960938 219.960938 649.476562 220.226562 650.980469 C 220.496094 652.484375 220.867188 653.960938 221.351562 655.414062 C 221.832031 656.863281 222.417969 658.269531 223.105469 659.632812 C 223.792969 660.996094 224.574219 662.304688 225.453125 663.554688 C 226.332031 664.804688 227.296875 665.984375 228.347656 667.09375 C 229.398438 668.199219 230.523438 669.226562 231.722656 670.171875 C 232.925781 671.117188 234.1875 671.96875 235.511719 672.730469 C 237.234375 673.710938 239.03125 674.523438 240.902344 675.167969 C 242.777344 675.8125 244.691406 676.28125 246.652344 676.566406 C 248.613281 676.855469 250.582031 676.960938 252.5625 676.878906 C 254.542969 676.800781 256.496094 676.539062 258.425781 676.09375 C 258.90625 678.21875 259.597656 680.273438 260.503906 682.257812 C 261.40625 684.238281 262.507812 686.105469 263.800781 687.859375 C 265.09375 689.609375 266.554688 691.210938 268.183594 692.660156 C 269.808594 694.109375 271.566406 695.375 273.457031 696.460938 C 275.695312 697.738281 278.058594 698.707031 280.550781 699.367188 C 283.042969 700.023438 285.578125 700.347656 288.15625 700.339844 C 291.296875 700.324219 294.371094 699.867188 297.378906 698.964844 C 297.632812 699.980469 297.933594 700.984375 298.285156 701.972656 C 298.636719 702.957031 299.039062 703.925781 299.484375 704.875 C 299.933594 705.820312 300.429688 706.742188 300.96875 707.640625 C 301.511719 708.539062 302.097656 709.40625 302.722656 710.246094 C 303.351562 711.085938 304.019531 711.890625 304.726562 712.664062 C 305.4375 713.4375 306.183594 714.171875 306.964844 714.871094 C 307.746094 715.570312 308.5625 716.226562 309.410156 716.84375 C 310.257812 717.457031 311.132812 718.03125 312.039062 718.558594 C 312.945312 719.089844 313.871094 719.570312 314.828125 720.007812 C 315.78125 720.441406 316.753906 720.828125 317.746094 721.167969 C 318.738281 721.507812 319.742188 721.792969 320.765625 722.03125 C 321.785156 722.269531 322.816406 722.457031 323.855469 722.589844 C 324.894531 722.726562 325.9375 722.808594 326.984375 722.835938 C 328.035156 722.867188 329.082031 722.84375 330.125 722.769531 C 331.171875 722.695312 332.210938 722.570312 333.242188 722.390625 C 334.277344 722.210938 335.296875 721.980469 336.308594 721.699219 C 336.84375 723.710938 337.570312 725.648438 338.488281 727.515625 C 339.410156 729.378906 340.503906 731.136719 341.769531 732.785156 C 343.039062 734.433594 344.457031 735.941406 346.023438 737.308594 C 347.589844 738.675781 349.277344 739.875 351.082031 740.90625 C 351.976562 741.421875 352.898438 741.886719 353.839844 742.308594 C 354.78125 742.734375 355.742188 743.109375 356.722656 743.4375 C 357.703125 743.765625 358.695312 744.042969 359.703125 744.273438 C 360.710938 744.503906 361.726562 744.683594 362.75 744.816406 C 363.773438 744.945312 364.800781 745.027344 365.835938 745.058594 C 366.867188 745.085938 367.898438 745.066406 368.929688 744.996094 C 369.960938 744.921875 370.984375 744.800781 372.003906 744.628906 C 373.019531 744.457031 374.027344 744.238281 375.023438 743.964844 C 376.023438 743.695312 377.003906 743.375 377.96875 743.007812 C 378.933594 742.640625 379.878906 742.226562 380.804688 741.765625 C 381.726562 741.308594 382.628906 740.804688 383.503906 740.253906 C 384.378906 739.707031 385.226562 739.117188 386.042969 738.484375 C 386.859375 737.851562 387.644531 737.183594 388.394531 736.472656 C 389.148438 735.765625 389.863281 735.023438 390.539062 734.242188 C 391.21875 733.464844 391.859375 732.65625 392.457031 731.8125 C 393.054688 730.972656 393.613281 730.101562 394.125 729.207031 L 394.597656 728.382812 L 413.160156 743.007812 C 415.964844 745.203125 419.046875 746.882812 422.414062 748.042969 C 425.78125 749.203125 429.246094 749.78125 432.808594 749.78125 C 434.117188 749.78125 435.421875 749.699219 436.722656 749.535156 C 438.761719 749.289062 440.761719 748.84375 442.714844 748.199219 C 444.667969 747.554688 446.539062 746.722656 448.324219 745.703125 C 450.113281 744.679688 451.78125 743.496094 453.328125 742.140625 C 454.878906 740.785156 456.277344 739.292969 457.527344 737.65625 C 459.453125 735.1875 460.976562 732.488281 462.089844 729.5625 C 463.207031 726.636719 463.867188 723.609375 464.074219 720.484375 C 466.648438 720.804688 469.226562 720.8125 471.804688 720.5 C 473.863281 720.265625 475.878906 719.828125 477.847656 719.195312 C 479.820312 718.558594 481.707031 717.734375 483.515625 716.726562 C 485.324219 715.714844 487.015625 714.539062 488.589844 713.191406 C 490.164062 711.847656 491.589844 710.359375 492.871094 708.730469 C 494.90625 706.207031 496.453125 703.410156 497.511719 700.347656 C 498.570312 697.28125 499.078125 694.125 499.03125 690.882812 C 501.507812 691.167969 503.984375 691.164062 506.457031 690.867188 C 508.515625 690.628906 510.53125 690.195312 512.5 689.558594 C 514.472656 688.921875 516.363281 688.097656 518.171875 687.085938 C 519.976562 686.074219 521.667969 684.898438 523.242188 683.550781 C 524.816406 682.203125 526.242188 680.714844 527.519531 679.085938 C 528.640625 677.679688 529.621094 676.175781 530.457031 674.582031 C 531.289062 672.988281 531.96875 671.332031 532.488281 669.605469 C 533.007812 667.882812 533.359375 666.128906 533.546875 664.335938 C 533.730469 662.546875 533.746094 660.757812 533.589844 658.960938 C 535.050781 658.988281 536.507812 658.914062 537.960938 658.742188 C 538.902344 658.632812 539.84375 658.480469 540.773438 658.285156 C 541.703125 658.09375 542.625 657.855469 543.535156 657.578125 C 544.441406 657.300781 545.339844 656.980469 546.21875 656.621094 C 547.097656 656.261719 547.960938 655.863281 548.804688 655.425781 C 549.648438 654.988281 550.472656 654.511719 551.273438 654 C 552.074219 653.484375 552.851562 652.9375 553.601562 652.355469 C 554.351562 651.773438 555.078125 651.15625 555.773438 650.507812 C 556.464844 649.859375 557.132812 649.179688 557.765625 648.46875 C 558.398438 647.761719 559 647.023438 559.566406 646.257812 C 560.132812 645.496094 560.660156 644.707031 561.15625 643.894531 C 561.652344 643.082031 562.109375 642.25 562.527344 641.398438 C 562.945312 640.542969 563.328125 639.671875 563.667969 638.785156 C 564.007812 637.894531 564.304688 636.992188 564.5625 636.078125 C 564.820312 635.164062 565.039062 634.238281 565.210938 633.304688 C 565.386719 632.367188 565.515625 631.425781 565.605469 630.480469 C 565.695312 629.53125 565.738281 628.582031 565.742188 627.632812 L 574.40625 626.785156 C 574.429688 627.371094 574.507812 627.949219 574.640625 628.523438 C 574.773438 629.09375 574.957031 629.648438 575.199219 630.1875 C 575.4375 630.722656 575.726562 631.230469 576.066406 631.710938 C 576.402344 632.191406 576.78125 632.636719 577.207031 633.042969 C 577.628906 633.453125 578.085938 633.816406 578.582031 634.132812 C 579.074219 634.453125 579.59375 634.722656 580.136719 634.941406 C 580.683594 635.164062 581.242188 635.328125 581.820312 635.441406 C 582.398438 635.550781 582.980469 635.605469 583.566406 635.605469 C 583.820312 635.605469 584.074219 635.597656 584.332031 635.574219 L 666.320312 628.761719 C 666.921875 628.710938 667.511719 628.601562 668.09375 628.4375 C 668.671875 628.269531 669.230469 628.046875 669.765625 627.773438 C 670.304688 627.496094 670.808594 627.171875 671.277344 626.792969 C 671.75 626.417969 672.179688 626 672.570312 625.539062 C 672.960938 625.078125 673.300781 624.585938 673.59375 624.058594 C 673.886719 623.53125 674.125 622.980469 674.304688 622.40625 C 674.488281 621.828125 674.617188 621.242188 674.683594 620.644531 C 674.75 620.042969 674.761719 619.445312 674.710938 618.84375 Z M 575.035156 608.289062 L 562.59375 609.511719 L 545.457031 468.410156 L 580.15625 465.011719 Z M 400.746094 441.007812 L 494.960938 470.910156 C 496.023438 471.246094 497.109375 471.382812 498.222656 471.328125 L 527.136719 469.796875 L 542.113281 593.109375 L 484.332031 547.945312 C 484.257812 547.886719 484.179688 547.832031 484.105469 547.773438 C 463.027344 532.320312 454.289062 521.441406 447.269531 512.695312 C 433.066406 495 423.078125 485.058594 367.769531 469.828125 C 366.585938 469.5 365.382812 469.414062 364.160156 469.570312 C 362.941406 469.726562 361.796875 470.113281 360.734375 470.734375 L 289.191406 512.152344 C 288.730469 512.433594 288.25 512.675781 287.75 512.882812 C 287.253906 513.085938 286.742188 513.25 286.214844 513.371094 C 285.691406 513.492188 285.160156 513.570312 284.621094 513.609375 C 284.085938 513.644531 283.546875 513.636719 283.011719 513.585938 C 282.472656 513.535156 281.945312 513.445312 281.421875 513.308594 C 280.902344 513.171875 280.394531 512.996094 279.902344 512.78125 C 279.40625 512.5625 278.933594 512.308594 278.480469 512.015625 C 278.03125 511.722656 277.605469 511.394531 277.203125 511.035156 L 272.28125 506.703125 C 272.226562 506.65625 272.175781 506.605469 272.128906 506.550781 C 272.121094 506.523438 272.117188 506.496094 272.117188 506.46875 C 272.46875 505.914062 272.871094 505.398438 273.324219 504.917969 L 297.214844 477.867188 L 316.785156 454.960938 Z M 92.300781 617.125 L 103.839844 435.445312 L 145.957031 439.714844 L 154.570312 613.453125 L 154.972656 621.582031 Z M 165.339844 459.890625 L 209.480469 467.582031 L 185.078125 607.574219 L 172.550781 605.386719 Z M 244.628906 656.800781 C 243.882812 656.351562 243.183594 655.835938 242.539062 655.25 C 241.890625 654.667969 241.304688 654.027344 240.78125 653.328125 C 240.257812 652.628906 239.808594 651.886719 239.429688 651.101562 C 239.050781 650.316406 238.75 649.503906 238.53125 648.660156 C 238.3125 647.816406 238.175781 646.957031 238.121094 646.085938 C 238.066406 645.214844 238.097656 644.347656 238.210938 643.484375 C 238.328125 642.621094 238.523438 641.773438 238.800781 640.949219 C 239.082031 640.121094 239.4375 639.332031 239.871094 638.574219 L 249.113281 621.269531 C 249.894531 619.820312 250.933594 618.585938 252.222656 617.566406 C 253.511719 616.542969 254.949219 615.8125 256.539062 615.378906 C 257.171875 615.191406 257.820312 615.050781 258.476562 614.957031 C 259.132812 614.867188 259.789062 614.824219 260.453125 614.828125 C 261.117188 614.835938 261.773438 614.890625 262.429688 614.996094 C 263.082031 615.101562 263.726562 615.257812 264.355469 615.457031 C 264.988281 615.660156 265.601562 615.90625 266.195312 616.203125 C 266.789062 616.496094 267.359375 616.832031 267.902344 617.210938 C 268.445312 617.589844 268.957031 618.007812 269.4375 618.460938 C 269.917969 618.917969 270.363281 619.40625 270.769531 619.929688 C 271.179688 620.453125 271.546875 621 271.871094 621.578125 C 272.195312 622.15625 272.476562 622.753906 272.710938 623.375 C 272.949219 623.992188 273.136719 624.628906 273.277344 625.273438 C 273.417969 625.921875 273.507812 626.578125 273.550781 627.238281 C 273.59375 627.898438 273.585938 628.558594 273.53125 629.21875 C 273.472656 629.878906 273.367188 630.53125 273.214844 631.175781 C 273.058594 631.820312 272.855469 632.453125 272.609375 633.066406 C 272.359375 633.679688 272.066406 634.273438 271.726562 634.84375 C 271.253906 635.730469 270.9375 636.671875 270.773438 637.664062 L 262.40625 652.28125 C 261.617188 653.691406 260.585938 654.898438 259.3125 655.894531 C 258.039062 656.894531 256.625 657.605469 255.0625 658.035156 C 253.3125 658.539062 251.53125 658.683594 249.722656 658.46875 C 247.914062 658.257812 246.214844 657.699219 244.628906 656.800781 Z M 282.574219 680.539062 C 281.820312 680.109375 281.121094 679.609375 280.46875 679.039062 C 279.816406 678.472656 279.226562 677.84375 278.695312 677.160156 C 278.167969 676.476562 277.710938 675.746094 277.324219 674.96875 C 276.9375 674.195312 276.632812 673.390625 276.402344 672.554688 C 276.175781 671.722656 276.035156 670.871094 275.972656 670.007812 C 275.914062 669.144531 275.9375 668.285156 276.046875 667.425781 C 276.15625 666.566406 276.347656 665.726562 276.621094 664.90625 C 276.894531 664.085938 277.246094 663.300781 277.675781 662.550781 L 290.792969 639.640625 C 291.222656 638.890625 291.71875 638.1875 292.289062 637.535156 C 292.855469 636.882812 293.484375 636.292969 294.167969 635.761719 C 294.851562 635.234375 295.582031 634.773438 296.359375 634.390625 C 297.132812 634.003906 297.9375 633.699219 298.773438 633.46875 C 299.609375 633.242188 300.457031 633.097656 301.320312 633.039062 C 302.183594 632.980469 303.042969 633.003906 303.902344 633.113281 C 304.761719 633.222656 305.601562 633.414062 306.421875 633.6875 C 307.242188 633.964844 308.027344 634.316406 308.78125 634.746094 C 314.441406 637.984375 318.164062 644.773438 314.328125 651.476562 L 301.214844 674.382812 C 300.238281 676.027344 299 677.445312 297.5 678.628906 C 296 679.816406 294.335938 680.695312 292.511719 681.269531 C 290.878906 681.839844 289.199219 682.0625 287.46875 681.933594 C 285.742188 681.808594 284.113281 681.34375 282.582031 680.539062 Z M 321.382812 702.757812 C 320.632812 702.328125 319.933594 701.828125 319.28125 701.261719 C 318.628906 700.691406 318.035156 700.066406 317.507812 699.378906 C 316.976562 698.695312 316.519531 697.964844 316.136719 697.191406 C 315.75 696.417969 315.441406 695.613281 315.214844 694.777344 C 314.988281 693.941406 314.84375 693.09375 314.785156 692.230469 C 314.726562 691.367188 314.75 690.503906 314.859375 689.648438 C 314.96875 688.789062 315.160156 687.949219 315.433594 687.128906 C 315.707031 686.308594 316.058594 685.519531 316.488281 684.769531 L 334.527344 653.261719 C 334.957031 652.511719 335.457031 651.808594 336.023438 651.15625 C 336.59375 650.503906 337.21875 649.910156 337.902344 649.382812 C 338.589844 648.851562 339.316406 648.394531 340.09375 648.007812 C 340.867188 647.625 341.671875 647.316406 342.507812 647.089844 C 343.34375 646.863281 344.191406 646.71875 345.054688 646.660156 C 345.917969 646.597656 346.78125 646.625 347.640625 646.734375 C 348.496094 646.84375 349.335938 647.035156 350.15625 647.308594 C 350.976562 647.585938 351.765625 647.9375 352.515625 648.367188 C 353.265625 648.796875 353.96875 649.296875 354.621094 649.863281 C 355.273438 650.433594 355.867188 651.058594 356.394531 651.742188 C 356.925781 652.429688 357.382812 653.15625 357.769531 653.933594 C 358.15625 654.707031 358.460938 655.511719 358.6875 656.347656 C 358.914062 657.183594 359.058594 658.03125 359.121094 658.894531 C 359.179688 659.757812 359.15625 660.621094 359.046875 661.480469 C 358.933594 662.335938 358.742188 663.175781 358.46875 663.996094 C 358.191406 664.816406 357.839844 665.605469 357.410156 666.355469 L 339.386719 697.863281 C 338.953125 698.613281 338.457031 699.3125 337.886719 699.96875 C 337.316406 700.621094 336.691406 701.210938 336.007812 701.742188 C 335.320312 702.269531 334.589844 702.726562 333.816406 703.113281 C 333.042969 703.5 332.238281 703.804688 331.402344 704.03125 C 330.566406 704.261719 329.71875 704.402344 328.851562 704.464844 C 327.988281 704.523438 327.128906 704.5 326.269531 704.390625 C 325.410156 704.28125 324.570312 704.089844 323.75 703.816406 C 322.929688 703.539062 322.144531 703.1875 321.390625 702.757812 Z M 360.195312 724.980469 C 359.445312 724.550781 358.742188 724.050781 358.089844 723.480469 C 357.441406 722.914062 356.847656 722.285156 356.320312 721.601562 C 355.792969 720.917969 355.335938 720.1875 354.949219 719.414062 C 354.5625 718.636719 354.257812 717.835938 354.03125 717 C 353.800781 716.164062 353.660156 715.316406 353.597656 714.453125 C 353.539062 713.589844 353.5625 712.730469 353.671875 711.871094 C 353.78125 711.011719 353.972656 710.171875 354.246094 709.351562 C 354.519531 708.53125 354.871094 707.746094 355.300781 706.996094 L 373.328125 675.503906 L 373.328125 675.492188 C 373.753906 674.761719 374.242188 674.074219 374.796875 673.4375 C 375.355469 672.796875 375.964844 672.21875 376.632812 671.699219 C 377.300781 671.175781 378.011719 670.722656 378.765625 670.339844 C 379.519531 669.953125 380.304688 669.644531 381.117188 669.410156 C 381.929688 669.175781 382.757812 669.019531 383.601562 668.945312 C 384.445312 668.871094 385.289062 668.875 386.128906 668.964844 C 386.972656 669.050781 387.800781 669.214844 388.609375 669.460938 C 389.417969 669.707031 390.199219 670.027344 390.949219 670.421875 L 394.242188 672.898438 C 394.734375 673.410156 395.183594 673.957031 395.585938 674.539062 C 395.988281 675.121094 396.34375 675.730469 396.648438 676.371094 C 396.953125 677.007812 397.207031 677.667969 397.40625 678.347656 C 397.605469 679.027344 397.75 679.71875 397.835938 680.421875 C 397.925781 681.125 397.957031 681.832031 397.929688 682.539062 C 397.90625 683.246094 397.820312 683.949219 397.683594 684.644531 C 397.542969 685.335938 397.351562 686.015625 397.105469 686.679688 C 396.855469 687.34375 396.554688 687.984375 396.207031 688.597656 L 378.191406 720.089844 C 377.761719 720.839844 377.261719 721.539062 376.695312 722.191406 C 376.125 722.84375 375.5 723.433594 374.8125 723.964844 C 374.128906 724.492188 373.398438 724.949219 372.625 725.335938 C 371.847656 725.722656 371.042969 726.027344 370.210938 726.253906 C 369.375 726.480469 368.527344 726.625 367.664062 726.683594 C 366.800781 726.746094 365.9375 726.71875 365.078125 726.609375 C 364.222656 726.5 363.382812 726.308594 362.5625 726.035156 C 361.742188 725.761719 360.953125 725.410156 360.203125 724.980469 Z M 442.949219 726.507812 C 441.910156 727.855469 440.652344 728.945312 439.171875 729.78125 C 437.695312 730.621094 436.113281 731.136719 434.425781 731.332031 C 432.65625 731.566406 430.910156 731.445312 429.191406 730.96875 C 427.472656 730.496094 425.914062 729.707031 424.511719 728.601562 L 403.820312 712.28125 L 412.164062 697.703125 C 413.75 694.941406 414.886719 692.007812 415.578125 688.898438 L 440.863281 707.914062 C 441.535156 708.457031 442.148438 709.066406 442.703125 709.730469 C 443.257812 710.394531 443.746094 711.109375 444.160156 711.867188 C 444.578125 712.628906 444.914062 713.421875 445.175781 714.246094 C 445.4375 715.074219 445.617188 715.917969 445.714844 716.777344 C 445.8125 717.640625 445.824219 718.503906 445.753906 719.367188 C 445.683594 720.230469 445.527344 721.078125 445.292969 721.910156 C 445.054688 722.746094 444.738281 723.546875 444.347656 724.320312 C 443.953125 725.09375 443.488281 725.820312 442.957031 726.5 Z M 544.597656 635.632812 C 544.0625 636.308594 543.460938 636.925781 542.804688 637.484375 C 542.144531 638.042969 541.4375 638.535156 540.683594 638.953125 C 539.925781 639.375 539.136719 639.71875 538.316406 639.984375 C 537.492188 640.25 536.652344 640.433594 535.792969 640.535156 C 534.9375 640.640625 534.078125 640.65625 533.214844 640.589844 C 532.351562 640.523438 531.503906 640.375 530.671875 640.140625 C 529.839844 639.910156 529.039062 639.597656 528.265625 639.207031 C 527.496094 638.820312 526.769531 638.359375 526.085938 637.828125 L 522.261719 634.816406 C 522.242188 634.800781 522.222656 634.792969 522.203125 634.777344 C 522.183594 634.765625 522.132812 634.714844 522.097656 634.6875 L 453.246094 582.917969 C 452.765625 582.550781 452.25 582.230469 451.707031 581.964844 C 451.164062 581.699219 450.597656 581.488281 450.011719 581.335938 C 449.425781 581.179688 448.832031 581.082031 448.226562 581.046875 C 447.621094 581.011719 447.019531 581.035156 446.417969 581.117188 C 445.820312 581.199219 445.230469 581.339844 444.660156 581.539062 C 444.085938 581.738281 443.539062 581.988281 443.019531 582.296875 C 442.496094 582.605469 442.007812 582.960938 441.554688 583.363281 C 441.105469 583.765625 440.695312 584.210938 440.332031 584.695312 C 439.96875 585.179688 439.65625 585.695312 439.394531 586.242188 C 439.132812 586.785156 438.925781 587.351562 438.773438 587.941406 C 438.625 588.527344 438.535156 589.125 438.503906 589.730469 C 438.472656 590.332031 438.5 590.9375 438.585938 591.535156 C 438.675781 592.136719 438.820312 592.71875 439.023438 593.292969 C 439.226562 593.863281 439.484375 594.40625 439.796875 594.925781 C 440.105469 595.445312 440.464844 595.929688 440.871094 596.378906 C 441.28125 596.828125 441.726562 597.234375 442.214844 597.59375 L 510.121094 648.636719 C 513.226562 652.703125 518.300781 661.152344 513.105469 667.742188 C 512.566406 668.417969 511.96875 669.035156 511.308594 669.59375 C 510.648438 670.152344 509.941406 670.644531 509.1875 671.0625 C 508.433594 671.484375 507.644531 671.828125 506.820312 672.09375 C 506 672.359375 505.160156 672.542969 504.300781 672.648438 C 503.441406 672.75 502.582031 672.765625 501.722656 672.699219 C 500.859375 672.632812 500.011719 672.484375 499.179688 672.25 C 498.347656 672.019531 497.546875 671.707031 496.773438 671.320312 C 496 670.929688 495.273438 670.46875 494.59375 669.9375 L 487.625 664.445312 C 487.605469 664.429688 487.582031 664.421875 487.566406 664.40625 C 487.546875 664.390625 487.496094 664.34375 487.457031 664.316406 L 418.59375 612.550781 C 418.113281 612.195312 417.601562 611.890625 417.058594 611.632812 C 416.515625 611.378906 415.953125 611.175781 415.371094 611.03125 C 414.789062 610.882812 414.199219 610.796875 413.601562 610.765625 C 413.003906 610.734375 412.40625 610.765625 411.8125 610.851562 C 411.21875 610.9375 410.640625 611.082031 410.074219 611.28125 C 409.507812 611.480469 408.96875 611.734375 408.453125 612.039062 C 407.9375 612.34375 407.457031 612.699219 407.007812 613.097656 C 406.5625 613.5 406.160156 613.9375 405.800781 614.417969 C 405.4375 614.898438 405.128906 615.40625 404.867188 615.949219 C 404.609375 616.488281 404.402344 617.046875 404.25 617.628906 C 404.101562 618.210938 404.007812 618.796875 403.972656 619.398438 C 403.9375 619.996094 403.960938 620.59375 404.042969 621.1875 C 404.125 621.78125 404.265625 622.359375 404.460938 622.925781 C 404.65625 623.496094 404.902344 624.035156 405.207031 624.554688 C 405.507812 625.074219 405.855469 625.558594 406.253906 626.007812 C 406.648438 626.457031 407.085938 626.863281 407.5625 627.226562 L 475.363281 678.191406 C 478.90625 683.105469 483.242188 691.300781 478.453125 697.375 C 477.914062 698.054688 477.316406 698.671875 476.65625 699.230469 C 475.996094 699.789062 475.289062 700.277344 474.535156 700.699219 C 473.78125 701.121094 472.992188 701.464844 472.167969 701.730469 C 471.347656 701.996094 470.507812 702.179688 469.648438 702.28125 C 468.789062 702.382812 467.929688 702.402344 467.066406 702.335938 C 466.207031 702.269531 465.359375 702.117188 464.527344 701.886719 C 463.695312 701.652344 462.890625 701.34375 462.121094 700.953125 C 461.347656 700.5625 460.621094 700.105469 459.941406 699.570312 L 452.203125 693.472656 C 452.171875 693.449219 452.140625 693.433594 452.113281 693.410156 C 452.085938 693.390625 452.0625 693.367188 452.035156 693.347656 L 406.113281 658.824219 C 404.515625 657.359375 402.789062 656.070312 400.925781 654.964844 C 400.796875 654.878906 400.671875 654.792969 400.542969 654.71875 C 400.515625 654.703125 400.492188 654.683594 400.460938 654.664062 C 400.371094 654.613281 400.277344 654.578125 400.1875 654.527344 C 400.035156 654.441406 399.871094 654.355469 399.707031 654.28125 C 397.9375 653.328125 396.097656 652.550781 394.183594 651.953125 C 392.269531 651.351562 390.3125 650.941406 388.320312 650.714844 C 386.324219 650.488281 384.328125 650.453125 382.328125 650.613281 C 380.324219 650.769531 378.359375 651.113281 376.421875 651.648438 C 376.15625 650.648438 375.839844 649.664062 375.476562 648.695312 C 375.113281 647.726562 374.703125 646.777344 374.246094 645.851562 C 373.789062 644.921875 373.289062 644.019531 372.742188 643.140625 C 372.195312 642.261719 371.605469 641.410156 370.976562 640.589844 C 370.347656 639.769531 369.675781 638.980469 368.96875 638.226562 C 368.261719 637.472656 367.515625 636.753906 366.738281 636.074219 C 365.960938 635.390625 365.148438 634.75 364.308594 634.148438 C 363.464844 633.546875 362.59375 632.988281 361.699219 632.472656 C 360.800781 631.957031 359.878906 631.488281 358.9375 631.0625 C 357.992188 630.636719 357.03125 630.261719 356.050781 629.929688 C 355.070312 629.601562 354.074219 629.320312 353.066406 629.089844 C 352.058594 628.855469 351.039062 628.675781 350.011719 628.542969 C 348.988281 628.414062 347.957031 628.332031 346.921875 628.304688 C 345.886719 628.273438 344.855469 628.296875 343.820312 628.367188 C 342.789062 628.441406 341.761719 628.5625 340.742188 628.738281 C 339.722656 628.910156 338.714844 629.132812 337.714844 629.40625 C 335.316406 630.070312 333.027344 630.996094 330.847656 632.195312 C 329.386719 629.386719 327.554688 626.84375 325.355469 624.570312 C 323.152344 622.292969 320.675781 620.378906 317.917969 618.824219 C 315.808594 617.617188 313.585938 616.667969 311.257812 615.980469 C 308.925781 615.289062 306.550781 614.871094 304.125 614.730469 C 301.699219 614.589844 299.289062 614.730469 296.894531 615.144531 C 294.5 615.5625 292.183594 616.25 289.949219 617.203125 C 289.332031 615.472656 288.5625 613.808594 287.648438 612.214844 C 286.734375 610.617188 285.683594 609.117188 284.503906 607.707031 C 283.320312 606.296875 282.023438 605.003906 280.613281 603.824219 C 279.199219 602.644531 277.695312 601.601562 276.097656 600.691406 C 274.246094 599.636719 272.308594 598.777344 270.285156 598.113281 C 268.261719 597.445312 266.195312 596.988281 264.078125 596.734375 C 261.964844 596.480469 259.84375 596.4375 257.722656 596.609375 C 255.597656 596.78125 253.511719 597.15625 251.464844 597.746094 C 249.5 598.296875 247.605469 599.035156 245.789062 599.972656 C 243.972656 600.90625 242.265625 602.011719 240.671875 603.289062 C 239.078125 604.570312 237.628906 605.992188 236.324219 607.566406 C 235.019531 609.136719 233.886719 610.824219 232.921875 612.628906 L 226.507812 624.640625 L 202.773438 612.992188 L 227.664062 470.1875 L 237.085938 471.222656 C 237.859375 471.308594 238.628906 471.296875 239.394531 471.1875 L 284.28125 464.738281 L 283.347656 465.835938 L 259.554688 492.773438 C 257.796875 494.546875 256.417969 496.578125 255.414062 498.867188 C 254.414062 501.152344 253.855469 503.546875 253.742188 506.039062 C 253.710938 507.40625 253.832031 508.757812 254.101562 510.097656 C 254.367188 511.4375 254.777344 512.734375 255.332031 513.980469 C 255.886719 515.230469 256.566406 516.40625 257.378906 517.503906 C 258.191406 518.601562 259.113281 519.601562 260.144531 520.496094 L 265.066406 524.828125 C 266.179688 525.828125 267.367188 526.730469 268.625 527.539062 C 269.882812 528.347656 271.195312 529.050781 272.566406 529.652344 C 273.9375 530.253906 275.34375 530.742188 276.792969 531.117188 C 278.238281 531.496094 279.707031 531.757812 281.195312 531.898438 C 282.683594 532.042969 284.175781 532.070312 285.667969 531.976562 C 287.160156 531.886719 288.636719 531.675781 290.097656 531.351562 C 291.554688 531.023438 292.980469 530.585938 294.371094 530.03125 C 295.761719 529.480469 297.097656 528.820312 298.382812 528.058594 L 366.585938 488.570312 C 415.359375 502.292969 421.679688 510.171875 432.945312 524.203125 C 440.621094 533.765625 450.167969 545.660156 473.074219 562.472656 L 542.414062 617.113281 C 543.089844 617.648438 543.707031 618.25 544.265625 618.910156 C 544.824219 619.566406 545.3125 620.273438 545.734375 621.03125 C 546.15625 621.785156 546.496094 622.574219 546.765625 623.394531 C 547.03125 624.21875 547.214844 625.058594 547.316406 625.917969 C 547.417969 626.777344 547.433594 627.636719 547.367188 628.496094 C 547.300781 629.359375 547.152344 630.207031 546.917969 631.039062 C 546.6875 631.871094 546.375 632.671875 545.988281 633.445312 C 545.597656 634.214844 545.136719 634.941406 544.605469 635.625 Z M 593.105469 616.449219 L 599.214844 445.484375 L 641.316406 440.78125 L 655.644531 611.238281 Z M 298.332031 281.277344 C 300.320312 282.917969 302.050781 284.800781 303.523438 286.917969 C 304.996094 289.039062 306.152344 291.316406 306.996094 293.757812 L 304.023438 293.757812 C 303.105469 293.757812 302.191406 293.800781 301.277344 293.890625 C 300.363281 293.980469 299.457031 294.117188 298.554688 294.292969 C 297.65625 294.472656 296.765625 294.695312 295.890625 294.960938 C 295.011719 295.230469 294.148438 295.539062 293.300781 295.890625 C 292.453125 296.242188 291.621094 296.632812 290.8125 297.066406 C 290.003906 297.496094 289.21875 297.96875 288.453125 298.480469 C 287.691406 298.988281 286.957031 299.535156 286.246094 300.117188 C 285.535156 300.699219 284.855469 301.316406 284.207031 301.964844 C 283.558594 302.613281 282.941406 303.292969 282.359375 304 C 281.777344 304.710938 281.234375 305.449219 280.722656 306.210938 C 280.214844 306.972656 279.742188 307.761719 279.308594 308.570312 C 278.875 309.378906 278.484375 310.207031 278.132812 311.054688 C 277.78125 311.902344 277.472656 312.765625 277.207031 313.644531 C 276.941406 314.523438 276.71875 315.414062 276.539062 316.3125 C 276.359375 317.210938 276.226562 318.121094 276.136719 319.03125 C 276.046875 319.945312 276 320.863281 276 321.78125 C 276 322.699219 276.046875 323.613281 276.136719 324.527344 C 276.226562 325.441406 276.359375 326.347656 276.539062 327.246094 C 276.71875 328.148438 276.941406 329.035156 277.207031 329.914062 C 277.472656 330.792969 277.78125 331.65625 278.132812 332.503906 C 278.484375 333.351562 278.875 334.179688 279.308594 334.988281 C 279.742188 335.800781 280.214844 336.585938 280.722656 337.347656 C 281.234375 338.113281 281.777344 338.847656 282.359375 339.558594 C 282.941406 340.265625 283.558594 340.945312 284.207031 341.59375 C 284.855469 342.246094 285.535156 342.859375 286.246094 343.441406 C 286.957031 344.023438 287.691406 344.570312 288.453125 345.082031 C 289.21875 345.589844 290.003906 346.0625 290.8125 346.496094 C 291.621094 346.925781 292.453125 347.320312 293.300781 347.671875 C 294.148438 348.023438 295.011719 348.332031 295.890625 348.597656 C 296.765625 348.863281 297.65625 349.085938 298.554688 349.265625 C 299.457031 349.445312 300.363281 349.578125 301.277344 349.667969 C 302.191406 349.757812 303.105469 349.804688 304.023438 349.804688 L 308.519531 349.804688 C 308.5625 351.527344 308.722656 353.242188 309.003906 354.945312 C 309.285156 356.648438 309.683594 358.324219 310.199219 359.972656 C 310.714844 361.617188 311.34375 363.222656 312.085938 364.78125 C 312.824219 366.339844 313.671875 367.839844 314.621094 369.28125 C 315.574219 370.722656 316.621094 372.089844 317.761719 373.382812 C 318.902344 374.675781 320.132812 375.886719 321.441406 377.007812 C 322.753906 378.128906 324.136719 379.15625 325.59375 380.085938 C 327.046875 381.011719 328.558594 381.835938 330.128906 382.550781 C 330.304688 383.871094 330.539062 385.175781 330.832031 386.472656 C 331.125 387.769531 331.476562 389.050781 331.882812 390.316406 C 332.289062 391.582031 332.753906 392.828125 333.273438 394.050781 C 333.792969 395.273438 334.367188 396.472656 334.996094 397.644531 C 335.625 398.816406 336.300781 399.957031 337.03125 401.070312 C 337.761719 402.179688 338.542969 403.253906 339.371094 404.296875 C 340.195312 405.335938 341.070312 406.339844 341.984375 407.300781 C 342.902344 408.261719 343.863281 409.183594 344.863281 410.058594 C 345.863281 410.933594 346.898438 411.765625 347.972656 412.546875 C 349.050781 413.328125 350.15625 414.0625 351.296875 414.746094 C 352.4375 415.429688 353.605469 416.058594 354.804688 416.636719 C 356 417.214844 357.222656 417.738281 358.46875 418.207031 C 359.710938 418.671875 360.972656 419.085938 362.253906 419.4375 C 363.535156 419.792969 364.832031 420.089844 366.140625 420.328125 C 367.449219 420.566406 368.765625 420.742188 370.089844 420.863281 C 371.414062 420.980469 372.738281 421.042969 374.070312 421.042969 C 375.398438 421.042969 376.726562 420.980469 378.050781 420.863281 C 379.375 420.742188 380.6875 420.566406 381.996094 420.328125 C 383.304688 420.089844 384.601562 419.792969 385.882812 419.4375 C 387.164062 419.085938 388.425781 418.671875 389.671875 418.207031 C 390.914062 417.738281 392.136719 417.214844 393.332031 416.636719 C 394.53125 416.058594 395.699219 415.429688 396.839844 414.746094 C 397.980469 414.0625 399.089844 413.328125 400.164062 412.546875 C 401.238281 411.765625 402.273438 410.933594 403.273438 410.058594 C 404.273438 409.183594 405.234375 408.261719 406.152344 407.300781 C 407.070312 406.339844 407.941406 405.335938 408.769531 404.296875 C 409.59375 403.253906 410.375 402.179688 411.105469 401.070312 C 411.835938 399.957031 412.515625 398.816406 413.140625 397.644531 C 413.769531 396.472656 414.34375 395.273438 414.863281 394.050781 C 415.382812 392.828125 415.847656 391.582031 416.253906 390.316406 C 416.664062 389.050781 417.011719 387.769531 417.304688 386.472656 C 417.597656 385.175781 417.832031 383.871094 418.007812 382.550781 C 419.578125 381.835938 421.089844 381.011719 422.542969 380.085938 C 424 379.15625 425.382812 378.132812 426.695312 377.007812 C 428.003906 375.886719 429.230469 374.679688 430.375 373.386719 C 431.515625 372.089844 432.5625 370.722656 433.511719 369.285156 C 434.464844 367.84375 435.308594 366.34375 436.050781 364.785156 C 436.789062 363.226562 437.417969 361.625 437.9375 359.976562 C 438.453125 358.332031 438.851562 356.65625 439.132812 354.953125 C 439.414062 353.25 439.578125 351.535156 439.617188 349.8125 L 444.113281 349.8125 C 445.03125 349.8125 445.945312 349.765625 446.859375 349.675781 C 447.773438 349.585938 448.679688 349.453125 449.582031 349.273438 C 450.480469 349.09375 451.371094 348.871094 452.25 348.605469 C 453.125 348.339844 453.988281 348.027344 454.835938 347.679688 C 455.683594 347.328125 456.515625 346.933594 457.324219 346.503906 C 458.132812 346.070312 458.917969 345.597656 459.683594 345.089844 C 460.445312 344.578125 461.183594 344.03125 461.890625 343.449219 C 462.601562 342.867188 463.28125 342.253906 463.929688 341.601562 C 464.578125 340.953125 465.195312 340.273438 465.777344 339.566406 C 466.359375 338.855469 466.90625 338.121094 467.414062 337.355469 C 467.925781 336.59375 468.394531 335.808594 468.828125 334.996094 C 469.261719 334.1875 469.652344 333.359375 470.003906 332.511719 C 470.355469 331.664062 470.664062 330.800781 470.929688 329.921875 C 471.195312 329.042969 471.417969 328.15625 471.597656 327.253906 C 471.777344 326.355469 471.914062 325.449219 472.003906 324.535156 C 472.09375 323.621094 472.136719 322.707031 472.136719 321.789062 C 472.136719 320.871094 472.09375 319.953125 472.003906 319.039062 C 471.914062 318.128906 471.777344 317.21875 471.597656 316.320312 C 471.417969 315.421875 471.195312 314.53125 470.929688 313.652344 C 470.664062 312.773438 470.355469 311.910156 470.003906 311.0625 C 469.652344 310.214844 469.261719 309.386719 468.828125 308.578125 C 468.394531 307.769531 467.925781 306.980469 467.414062 306.21875 C 466.90625 305.457031 466.359375 304.71875 465.777344 304.007812 C 465.195312 303.300781 464.578125 302.621094 463.929688 301.972656 C 463.28125 301.324219 462.601562 300.707031 461.890625 300.125 C 461.183594 299.542969 460.445312 298.996094 459.683594 298.488281 C 458.917969 297.976562 458.132812 297.503906 457.324219 297.074219 C 456.515625 296.640625 455.683594 296.25 454.835938 295.898438 C 453.988281 295.546875 453.125 295.238281 452.25 294.96875 C 451.371094 294.703125 450.480469 294.480469 449.582031 294.300781 C 448.679688 294.125 447.773438 293.988281 446.859375 293.898438 C 445.945312 293.808594 445.03125 293.765625 444.113281 293.765625 L 441.140625 293.765625 C 441.984375 291.324219 443.140625 289.046875 444.613281 286.925781 C 446.085938 284.808594 447.816406 282.925781 449.804688 281.285156 C 451.3125 280.003906 452.785156 278.683594 454.226562 277.328125 C 455.667969 275.972656 457.070312 274.578125 458.441406 273.152344 C 459.8125 271.722656 461.144531 270.261719 462.4375 268.765625 C 463.734375 267.269531 464.988281 265.742188 466.207031 264.183594 C 467.425781 262.621094 468.601562 261.03125 469.738281 259.414062 C 470.875 257.792969 471.972656 256.148438 473.023438 254.472656 C 474.078125 252.796875 475.089844 251.097656 476.054688 249.371094 C 477.023438 247.644531 477.945312 245.894531 478.824219 244.121094 C 479.699219 242.347656 480.535156 240.554688 481.320312 238.738281 C 482.109375 236.925781 482.847656 235.089844 483.542969 233.238281 C 484.234375 231.382812 484.882812 229.515625 485.480469 227.628906 C 486.082031 225.742188 486.628906 223.84375 487.132812 221.929688 C 487.636719 220.015625 488.089844 218.089844 488.492188 216.15625 C 488.898438 214.21875 489.253906 212.273438 489.558594 210.316406 C 489.867188 208.363281 490.121094 206.402344 490.328125 204.433594 C 490.535156 202.464844 490.691406 200.492188 490.796875 198.519531 C 490.902344 196.542969 490.960938 194.566406 490.964844 192.585938 C 490.972656 190.609375 490.925781 188.628906 490.832031 186.65625 C 490.738281 184.679688 490.59375 182.707031 490.398438 180.738281 C 490.203125 178.765625 489.960938 176.804688 489.664062 174.847656 C 489.371094 172.890625 489.027344 170.945312 488.632812 169.003906 C 488.238281 167.066406 487.796875 165.136719 487.304688 163.222656 C 486.816406 161.304688 486.277344 159.402344 485.6875 157.511719 C 485.101562 155.625 484.464844 153.75 483.78125 151.894531 C 483.097656 150.035156 482.371094 148.199219 481.59375 146.378906 C 480.816406 144.558594 479.996094 142.757812 479.128906 140.980469 C 478.257812 139.203125 477.347656 137.449219 476.390625 135.714844 C 475.433594 133.984375 474.433594 132.277344 473.390625 130.597656 C 472.347656 128.914062 471.261719 127.261719 470.132812 125.636719 C 469.007812 124.007812 467.839844 122.414062 466.628906 120.847656 C 465.421875 119.28125 464.175781 117.746094 462.886719 116.242188 C 461.601562 114.738281 460.277344 113.269531 458.917969 111.832031 C 457.554688 110.394531 456.160156 108.996094 454.726562 107.628906 C 453.296875 106.265625 451.828125 104.9375 450.332031 103.644531 C 448.832031 102.355469 447.300781 101.105469 445.738281 99.890625 C 444.171875 98.675781 442.582031 97.503906 440.957031 96.371094 C 439.335938 95.242188 437.683594 94.152344 436.007812 93.101562 C 434.328125 92.054688 432.625 91.046875 430.894531 90.085938 C 429.167969 89.125 427.414062 88.207031 425.640625 87.335938 C 423.863281 86.460938 422.066406 85.632812 420.25 84.851562 C 418.433594 84.070312 416.59375 83.335938 414.742188 82.648438 C 412.886719 81.960938 411.015625 81.320312 409.128906 80.726562 C 407.238281 80.132812 405.339844 79.585938 403.421875 79.089844 C 401.507812 78.59375 399.582031 78.144531 397.644531 77.746094 C 395.707031 77.347656 393.757812 76.996094 391.804688 76.699219 C 389.847656 76.398438 387.886719 76.148438 385.917969 75.945312 C 383.949219 75.746094 381.976562 75.59375 380 75.496094 C 378.023438 75.394531 376.046875 75.34375 374.070312 75.34375 C 372.089844 75.34375 370.113281 75.394531 368.136719 75.496094 C 366.160156 75.59375 364.1875 75.746094 362.21875 75.945312 C 360.25 76.148438 358.289062 76.398438 356.335938 76.699219 C 354.378906 76.996094 352.429688 77.347656 350.492188 77.746094 C 348.554688 78.144531 346.628906 78.59375 344.714844 79.089844 C 342.800781 79.585938 340.898438 80.132812 339.011719 80.726562 C 337.121094 81.320312 335.25 81.960938 333.394531 82.648438 C 331.542969 83.335938 329.707031 84.070312 327.886719 84.851562 C 326.070312 85.632812 324.273438 86.460938 322.496094 87.335938 C 320.722656 88.207031 318.96875 89.125 317.242188 90.085938 C 315.511719 91.046875 313.808594 92.054688 312.128906 93.101562 C 310.453125 94.152344 308.800781 95.242188 307.179688 96.371094 C 305.554688 97.503906 303.964844 98.675781 302.402344 99.890625 C 300.835938 101.105469 299.304688 102.355469 297.804688 103.644531 C 296.308594 104.9375 294.839844 106.265625 293.410156 107.628906 C 291.976562 108.996094 290.582031 110.394531 289.21875 111.832031 C 287.859375 113.269531 286.535156 114.738281 285.25 116.242188 C 283.960938 117.746094 282.714844 119.28125 281.507812 120.847656 C 280.296875 122.414062 279.128906 124.007812 278.003906 125.636719 C 276.875 127.261719 275.789062 128.914062 274.746094 130.597656 C 273.703125 132.277344 272.703125 133.984375 271.746094 135.714844 C 270.789062 137.449219 269.878906 139.203125 269.011719 140.980469 C 268.140625 142.757812 267.320312 144.558594 266.542969 146.378906 C 265.769531 148.199219 265.039062 150.035156 264.355469 151.894531 C 263.671875 153.75 263.035156 155.625 262.449219 157.511719 C 261.863281 159.402344 261.320312 161.304688 260.832031 163.222656 C 260.339844 165.136719 259.898438 167.066406 259.503906 169.003906 C 259.109375 170.945312 258.765625 172.890625 258.472656 174.847656 C 258.179688 176.804688 257.933594 178.765625 257.738281 180.738281 C 257.542969 182.707031 257.398438 184.679688 257.304688 186.65625 C 257.210938 188.628906 257.164062 190.609375 257.171875 192.585938 C 257.175781 194.566406 257.234375 196.542969 257.339844 198.519531 C 257.445312 200.492188 257.601562 202.464844 257.808594 204.433594 C 258.015625 206.402344 258.269531 208.363281 258.578125 210.316406 C 258.882812 212.273438 259.238281 214.21875 259.644531 216.15625 C 260.046875 218.089844 260.5 220.015625 261.003906 221.929688 C 261.507812 223.84375 262.058594 225.742188 262.65625 227.628906 C 263.253906 229.515625 263.902344 231.382812 264.59375 233.238281 C 265.289062 235.089844 266.03125 236.925781 266.816406 238.738281 C 267.605469 240.554688 268.4375 242.347656 269.3125 244.121094 C 270.191406 245.894531 271.113281 247.644531 272.082031 249.371094 C 273.046875 251.097656 274.058594 252.796875 275.113281 254.472656 C 276.164062 256.148438 277.261719 257.792969 278.398438 259.414062 C 279.535156 261.03125 280.710938 262.621094 281.929688 264.183594 C 283.148438 265.742188 284.402344 267.269531 285.699219 268.765625 C 286.992188 270.261719 288.328125 271.722656 289.695312 273.152344 C 291.066406 274.578125 292.46875 275.972656 293.910156 277.328125 C 295.351562 278.683594 296.824219 280.003906 298.332031 281.285156 Z M 374.0625 402.679688 C 372.753906 402.675781 371.449219 402.578125 370.15625 402.378906 C 368.859375 402.179688 367.585938 401.882812 366.335938 401.492188 C 365.085938 401.097656 363.871094 400.617188 362.695312 400.039062 C 361.515625 399.464844 360.390625 398.804688 359.3125 398.058594 C 358.234375 397.3125 357.21875 396.492188 356.265625 395.59375 C 355.3125 394.691406 354.433594 393.726562 353.625 392.695312 C 352.820312 391.664062 352.09375 390.574219 351.453125 389.433594 C 350.808594 388.292969 350.253906 387.109375 349.792969 385.882812 L 398.332031 385.882812 C 397.871094 387.109375 397.316406 388.292969 396.671875 389.433594 C 396.03125 390.574219 395.304688 391.664062 394.5 392.695312 C 393.691406 393.726562 392.8125 394.691406 391.859375 395.59375 C 390.90625 396.492188 389.890625 397.3125 388.8125 398.058594 C 387.734375 398.804688 386.609375 399.464844 385.429688 400.039062 C 384.253906 400.617188 383.039062 401.097656 381.789062 401.492188 C 380.539062 401.882812 379.265625 402.179688 377.96875 402.378906 C 376.675781 402.578125 375.371094 402.675781 374.0625 402.679688 Z M 402.703125 367.523438 L 345.421875 367.523438 C 344.832031 367.523438 344.242188 367.492188 343.65625 367.4375 C 343.066406 367.378906 342.484375 367.292969 341.90625 367.183594 C 341.328125 367.070312 340.753906 366.929688 340.1875 366.761719 C 339.625 366.59375 339.066406 366.402344 338.519531 366.179688 C 337.972656 365.960938 337.4375 365.714844 336.914062 365.445312 C 336.390625 365.171875 335.878906 364.878906 335.382812 364.558594 C 334.886719 364.238281 334.410156 363.894531 333.945312 363.53125 C 333.480469 363.164062 333.039062 362.777344 332.609375 362.371094 C 332.183594 361.964844 331.777344 361.535156 331.394531 361.089844 C 331.007812 360.644531 330.644531 360.179688 330.304688 359.699219 C 329.960938 359.21875 329.644531 358.722656 329.347656 358.210938 C 329.054688 357.699219 328.785156 357.175781 328.542969 356.636719 C 328.296875 356.101562 328.078125 355.554688 327.886719 354.996094 C 327.695312 354.4375 327.53125 353.871094 327.390625 353.300781 C 327.253906 352.726562 327.144531 352.148438 327.058594 351.5625 C 326.976562 350.980469 326.921875 350.394531 326.894531 349.804688 L 421.230469 349.804688 C 421.203125 350.394531 421.148438 350.980469 421.066406 351.5625 C 420.984375 352.148438 420.871094 352.726562 420.734375 353.300781 C 420.597656 353.871094 420.429688 354.4375 420.238281 354.996094 C 420.046875 355.554688 419.828125 356.101562 419.585938 356.636719 C 419.339844 357.175781 419.070312 357.699219 418.777344 358.210938 C 418.480469 358.722656 418.164062 359.21875 417.824219 359.699219 C 417.480469 360.179688 417.117188 360.644531 416.730469 361.089844 C 416.347656 361.535156 415.941406 361.964844 415.515625 362.371094 C 415.089844 362.777344 414.644531 363.164062 414.179688 363.53125 C 413.71875 363.894531 413.238281 364.238281 412.742188 364.558594 C 412.246094 364.878906 411.738281 365.171875 411.210938 365.445312 C 410.6875 365.714844 410.152344 365.960938 409.605469 366.179688 C 409.058594 366.402344 408.5 366.59375 407.9375 366.761719 C 407.371094 366.929688 406.796875 367.070312 406.21875 367.183594 C 405.640625 367.292969 405.058594 367.378906 404.46875 367.4375 C 403.882812 367.492188 403.292969 367.523438 402.703125 367.523438 Z M 453.773438 321.777344 C 453.769531 322.414062 453.707031 323.042969 453.585938 323.664062 C 453.460938 324.285156 453.277344 324.890625 453.035156 325.476562 C 452.789062 326.0625 452.492188 326.617188 452.140625 327.144531 C 451.789062 327.671875 451.386719 328.160156 450.9375 328.609375 C 450.488281 329.058594 450.003906 329.460938 449.476562 329.8125 C 448.945312 330.164062 448.390625 330.460938 447.804688 330.707031 C 447.21875 330.949219 446.613281 331.132812 445.992188 331.257812 C 445.371094 331.382812 444.742188 331.445312 444.105469 331.445312 L 304.019531 331.445312 C 303.382812 331.445312 302.753906 331.382812 302.132812 331.257812 C 301.507812 331.136719 300.90625 330.953125 300.320312 330.707031 C 299.734375 330.464844 299.175781 330.167969 298.648438 329.816406 C 298.121094 329.464844 297.632812 329.0625 297.183594 328.613281 C 296.734375 328.164062 296.335938 327.675781 295.980469 327.148438 C 295.628906 326.621094 295.332031 326.066406 295.089844 325.476562 C 294.847656 324.890625 294.664062 324.289062 294.539062 323.664062 C 294.414062 323.042969 294.351562 322.414062 294.351562 321.78125 C 294.351562 321.144531 294.414062 320.515625 294.539062 319.894531 C 294.664062 319.273438 294.847656 318.667969 295.089844 318.082031 C 295.332031 317.496094 295.628906 316.9375 295.980469 316.410156 C 296.335938 315.882812 296.734375 315.394531 297.183594 314.945312 C 297.632812 314.496094 298.121094 314.097656 298.648438 313.742188 C 299.175781 313.390625 299.734375 313.09375 300.320312 312.851562 C 300.90625 312.609375 301.507812 312.425781 302.132812 312.300781 C 302.753906 312.175781 303.382812 312.113281 304.019531 312.113281 L 444.105469 312.113281 C 444.742188 312.117188 445.371094 312.179688 445.992188 312.300781 C 446.613281 312.425781 447.21875 312.609375 447.804688 312.851562 C 448.390625 313.097656 448.945312 313.394531 449.472656 313.746094 C 450 314.097656 450.488281 314.5 450.9375 314.949219 C 451.386719 315.398438 451.789062 315.882812 452.140625 316.410156 C 452.492188 316.9375 452.789062 317.496094 453.035156 318.082031 C 453.277344 318.667969 453.460938 319.273438 453.585938 319.894531 C 453.707031 320.515625 453.769531 321.144531 453.773438 321.777344 Z M 374.0625 93.699219 C 376.566406 93.699219 379.0625 93.792969 381.558594 93.984375 C 384.054688 94.175781 386.539062 94.460938 389.011719 94.839844 C 391.484375 95.21875 393.941406 95.691406 396.378906 96.257812 C 398.816406 96.824219 401.226562 97.484375 403.613281 98.234375 C 406 98.984375 408.355469 99.824219 410.679688 100.753906 C 413.003906 101.683594 415.285156 102.703125 417.53125 103.804688 C 419.777344 104.910156 421.976562 106.097656 424.132812 107.371094 C 426.289062 108.640625 428.390625 109.992188 430.445312 111.425781 C 432.496094 112.855469 434.492188 114.363281 436.429688 115.949219 C 438.367188 117.53125 440.238281 119.1875 442.050781 120.914062 C 443.863281 122.640625 445.605469 124.433594 447.28125 126.292969 C 448.953125 128.152344 450.554688 130.074219 452.085938 132.054688 C 453.613281 134.035156 455.0625 136.074219 456.4375 138.164062 C 457.808594 140.257812 459.101562 142.398438 460.3125 144.589844 C 461.519531 146.777344 462.644531 149.011719 463.683594 151.289062 C 464.726562 153.5625 465.675781 155.875 466.539062 158.226562 C 467.40625 160.574219 468.175781 162.953125 468.859375 165.359375 C 469.542969 167.765625 470.132812 170.195312 470.628906 172.648438 C 471.128906 175.101562 471.53125 177.570312 471.839844 180.050781 C 472.148438 182.535156 472.363281 185.027344 472.484375 187.527344 C 472.601562 190.027344 472.628906 192.527344 472.554688 195.027344 C 472.484375 197.527344 472.320312 200.023438 472.058594 202.511719 C 471.796875 205 471.441406 207.476562 470.992188 209.9375 C 470.542969 212.398438 470 214.839844 469.363281 217.261719 C 468.730469 219.679688 468.003906 222.074219 467.183594 224.4375 C 466.367188 226.804688 465.460938 229.132812 464.464844 231.429688 C 463.46875 233.726562 462.386719 235.980469 461.222656 238.195312 C 460.054688 240.40625 458.804688 242.574219 457.472656 244.691406 C 456.140625 246.808594 454.730469 248.875 453.238281 250.886719 C 451.75 252.894531 450.1875 254.847656 448.546875 256.738281 C 446.910156 258.628906 445.203125 260.457031 443.425781 262.21875 C 441.648438 263.980469 439.804688 265.671875 437.902344 267.292969 C 435.882812 268.96875 434.023438 270.800781 432.320312 272.796875 C 430.617188 274.789062 429.097656 276.914062 427.757812 279.167969 C 426.421875 281.425781 425.285156 283.777344 424.351562 286.226562 C 423.417969 288.675781 422.699219 291.1875 422.195312 293.761719 L 325.933594 293.761719 C 325.429688 291.1875 324.710938 288.675781 323.777344 286.226562 C 322.839844 283.777344 321.703125 281.421875 320.367188 279.167969 C 319.027344 276.914062 317.507812 274.789062 315.804688 272.796875 C 314.101562 270.800781 312.242188 268.96875 310.222656 267.292969 C 308.320312 265.671875 306.476562 263.980469 304.699219 262.21875 C 302.921875 260.457031 301.214844 258.628906 299.578125 256.738281 C 297.9375 254.847656 296.375 252.894531 294.886719 250.886719 C 293.394531 248.875 291.984375 246.808594 290.652344 244.691406 C 289.320312 242.574219 288.070312 240.40625 286.902344 238.195312 C 285.738281 235.980469 284.65625 233.726562 283.660156 231.429688 C 282.664062 229.132812 281.757812 226.804688 280.941406 224.4375 C 280.121094 222.074219 279.394531 219.679688 278.761719 217.261719 C 278.125 214.839844 277.582031 212.398438 277.132812 209.9375 C 276.683594 207.476562 276.328125 205 276.066406 202.511719 C 275.804688 200.023438 275.640625 197.527344 275.570312 195.027344 C 275.496094 192.527344 275.523438 190.027344 275.640625 187.527344 C 275.761719 185.027344 275.976562 182.535156 276.285156 180.050781 C 276.59375 177.570312 276.996094 175.101562 277.496094 172.648438 C 277.992188 170.195312 278.582031 167.765625 279.265625 165.359375 C 279.949219 162.953125 280.71875 160.574219 281.585938 158.226562 C 282.449219 155.875 283.398438 153.5625 284.441406 151.289062 C 285.480469 149.011719 286.605469 146.777344 287.8125 144.589844 C 289.023438 142.398438 290.316406 140.257812 291.6875 138.164062 C 293.0625 136.074219 294.511719 134.035156 296.039062 132.054688 C 297.570312 130.074219 299.171875 128.152344 300.84375 126.292969 C 302.519531 124.433594 304.261719 122.640625 306.074219 120.914062 C 307.886719 119.1875 309.757812 117.53125 311.695312 115.949219 C 313.632812 114.363281 315.628906 112.855469 317.679688 111.425781 C 319.734375 109.992188 321.835938 108.640625 323.992188 107.371094 C 326.148438 106.097656 328.347656 104.910156 330.59375 103.804688 C 332.839844 102.703125 335.121094 101.683594 337.445312 100.753906 C 339.769531 99.824219 342.125 98.984375 344.511719 98.234375 C 346.898438 97.484375 349.308594 96.824219 351.746094 96.257812 C 354.183594 95.691406 356.640625 95.21875 359.113281 94.839844 C 361.585938 94.460938 364.070312 94.175781 366.566406 93.984375 C 369.0625 93.792969 371.558594 93.699219 374.0625 93.699219 Z M 310.601562 202.84375 C 310 202.84375 309.402344 202.785156 308.8125 202.667969 C 308.21875 202.550781 307.644531 202.375 307.089844 202.144531 C 306.53125 201.914062 306.003906 201.632812 305.503906 201.296875 C 305 200.960938 304.539062 200.582031 304.113281 200.15625 C 303.683594 199.730469 303.304688 199.265625 302.96875 198.765625 C 302.636719 198.261719 302.351562 197.734375 302.121094 197.175781 C 301.890625 196.621094 301.71875 196.046875 301.597656 195.457031 C 301.480469 194.863281 301.421875 194.269531 301.421875 193.664062 C 301.425781 192.476562 301.453125 191.289062 301.515625 190.101562 C 301.574219 188.914062 301.664062 187.730469 301.78125 186.546875 C 301.898438 185.367188 302.046875 184.1875 302.21875 183.011719 C 302.394531 181.835938 302.601562 180.664062 302.832031 179.5 C 303.066406 178.335938 303.328125 177.175781 303.617188 176.023438 C 303.90625 174.871094 304.226562 173.726562 304.570312 172.589844 C 304.917969 171.453125 305.289062 170.324219 305.691406 169.207031 C 306.09375 168.085938 306.519531 166.980469 306.976562 165.882812 C 307.429688 164.785156 307.914062 163.699219 308.421875 162.625 C 308.929688 161.550781 309.464844 160.488281 310.027344 159.441406 C 310.585938 158.394531 311.171875 157.359375 311.785156 156.339844 C 312.394531 155.320312 313.03125 154.320312 313.691406 153.332031 C 314.351562 152.34375 315.039062 151.371094 315.746094 150.417969 C 316.453125 149.464844 317.183594 148.527344 317.9375 147.609375 C 318.691406 146.691406 319.46875 145.789062 320.265625 144.910156 C 321.066406 144.03125 321.882812 143.167969 322.726562 142.328125 C 323.566406 141.488281 324.425781 140.667969 325.304688 139.871094 C 326.1875 139.074219 327.085938 138.296875 328.003906 137.542969 C 328.921875 136.789062 329.859375 136.058594 330.8125 135.351562 C 331.769531 134.640625 332.738281 133.957031 333.726562 133.296875 C 334.714844 132.636719 335.71875 132 336.738281 131.390625 C 337.757812 130.777344 338.789062 130.191406 339.839844 129.632812 C 340.886719 129.070312 341.945312 128.535156 343.019531 128.027344 C 344.09375 127.519531 345.179688 127.039062 346.277344 126.582031 C 347.375 126.125 348.484375 125.699219 349.601562 125.296875 C 350.722656 124.898438 351.847656 124.523438 352.988281 124.175781 C 354.125 123.832031 355.269531 123.515625 356.421875 123.222656 C 357.574219 122.933594 358.730469 122.671875 359.898438 122.441406 C 361.0625 122.207031 362.234375 122.003906 363.410156 121.828125 C 364.585938 121.652344 365.761719 121.507812 366.945312 121.386719 C 368.128906 121.269531 369.3125 121.183594 370.5 121.121094 C 371.6875 121.0625 372.875 121.03125 374.0625 121.03125 C 374.664062 121.03125 375.261719 121.089844 375.851562 121.207031 C 376.445312 121.324219 377.019531 121.5 377.574219 121.730469 C 378.132812 121.960938 378.660156 122.242188 379.164062 122.578125 C 379.664062 122.914062 380.128906 123.292969 380.554688 123.71875 C 380.980469 124.144531 381.359375 124.609375 381.695312 125.109375 C 382.03125 125.613281 382.3125 126.140625 382.542969 126.699219 C 382.773438 127.253906 382.949219 127.828125 383.066406 128.421875 C 383.183594 129.011719 383.242188 129.609375 383.242188 130.210938 C 383.242188 130.8125 383.183594 131.410156 383.066406 132 C 382.949219 132.59375 382.773438 133.167969 382.542969 133.722656 C 382.3125 134.28125 382.03125 134.808594 381.695312 135.3125 C 381.359375 135.8125 380.980469 136.277344 380.554688 136.703125 C 380.128906 137.128906 379.664062 137.507812 379.164062 137.84375 C 378.660156 138.179688 378.132812 138.460938 377.574219 138.691406 C 377.019531 138.921875 376.445312 139.097656 375.851562 139.214844 C 375.261719 139.332031 374.664062 139.390625 374.0625 139.390625 C 372.285156 139.394531 370.511719 139.480469 368.742188 139.65625 C 366.976562 139.832031 365.21875 140.09375 363.476562 140.445312 C 361.734375 140.792969 360.011719 141.222656 358.3125 141.742188 C 356.613281 142.257812 354.941406 142.859375 353.300781 143.539062 C 351.660156 144.21875 350.054688 144.980469 348.488281 145.816406 C 346.921875 146.65625 345.398438 147.570312 343.921875 148.558594 C 342.441406 149.546875 341.015625 150.601562 339.644531 151.730469 C 338.269531 152.859375 336.953125 154.050781 335.699219 155.308594 C 334.441406 156.5625 333.25 157.878906 332.121094 159.253906 C 330.996094 160.625 329.9375 162.050781 328.949219 163.527344 C 327.960938 165.007812 327.046875 166.527344 326.210938 168.09375 C 325.371094 169.664062 324.609375 171.265625 323.929688 172.910156 C 323.25 174.550781 322.648438 176.222656 322.132812 177.921875 C 321.617188 179.621094 321.183594 181.34375 320.835938 183.085938 C 320.488281 184.828125 320.226562 186.585938 320.050781 188.351562 C 319.871094 190.121094 319.785156 191.894531 319.78125 193.671875 C 319.78125 194.273438 319.722656 194.871094 319.605469 195.460938 C 319.488281 196.050781 319.3125 196.625 319.082031 197.183594 C 318.851562 197.738281 318.566406 198.265625 318.234375 198.769531 C 317.898438 199.269531 317.515625 199.730469 317.089844 200.15625 C 316.664062 200.582031 316.203125 200.964844 315.699219 201.296875 C 315.199219 201.632812 314.671875 201.914062 314.113281 202.144531 C 313.558594 202.375 312.984375 202.550781 312.390625 202.667969 C 311.800781 202.785156 311.203125 202.84375 310.601562 202.84375 Z M 364.882812 52.304688 L 364.882812 10.003906 C 364.882812 9.398438 364.941406 8.804688 365.058594 8.210938 C 365.175781 7.621094 365.351562 7.046875 365.582031 6.488281 C 365.8125 5.933594 366.09375 5.402344 366.429688 4.902344 C 366.765625 4.402344 367.144531 3.9375 367.570312 3.511719 C 367.996094 3.085938 368.460938 2.707031 368.960938 2.371094 C 369.464844 2.035156 369.992188 1.753906 370.550781 1.523438 C 371.105469 1.292969 371.679688 1.117188 372.273438 1 C 372.863281 0.882812 373.460938 0.824219 374.0625 0.824219 C 374.664062 0.824219 375.261719 0.882812 375.851562 1 C 376.445312 1.117188 377.019531 1.292969 377.574219 1.523438 C 378.132812 1.753906 378.660156 2.035156 379.164062 2.371094 C 379.664062 2.707031 380.128906 3.085938 380.554688 3.511719 C 380.980469 3.9375 381.359375 4.402344 381.695312 4.902344 C 382.03125 5.402344 382.3125 5.933594 382.542969 6.488281 C 382.773438 7.046875 382.949219 7.621094 383.066406 8.210938 C 383.183594 8.804688 383.242188 9.398438 383.242188 10.003906 L 383.242188 52.304688 C 383.242188 52.90625 383.183594 53.503906 383.066406 54.097656 C 382.949219 54.6875 382.773438 55.261719 382.542969 55.816406 C 382.3125 56.375 382.03125 56.902344 381.695312 57.40625 C 381.359375 57.90625 380.980469 58.371094 380.554688 58.796875 C 380.128906 59.222656 379.664062 59.601562 379.164062 59.9375 C 378.660156 60.273438 378.132812 60.554688 377.574219 60.785156 C 377.019531 61.015625 376.445312 61.191406 375.851562 61.308594 C 375.261719 61.425781 374.664062 61.484375 374.0625 61.484375 C 373.460938 61.484375 372.863281 61.425781 372.273438 61.308594 C 371.679688 61.191406 371.105469 61.015625 370.550781 60.785156 C 369.992188 60.554688 369.464844 60.273438 368.960938 59.9375 C 368.460938 59.601562 367.996094 59.222656 367.570312 58.796875 C 367.144531 58.371094 366.765625 57.90625 366.429688 57.40625 C 366.09375 56.902344 365.8125 56.375 365.582031 55.816406 C 365.351562 55.261719 365.175781 54.6875 365.058594 54.097656 C 364.941406 53.503906 364.882812 52.90625 364.882812 52.304688 Z M 267.683594 40.964844 C 267.386719 40.445312 267.144531 39.898438 266.953125 39.328125 C 266.765625 38.757812 266.632812 38.175781 266.554688 37.582031 C 266.480469 36.984375 266.464844 36.390625 266.503906 35.789062 C 266.546875 35.191406 266.648438 34.601562 266.804688 34.023438 C 266.960938 33.445312 267.171875 32.886719 267.441406 32.347656 C 267.707031 31.808594 268.023438 31.304688 268.390625 30.828125 C 268.757812 30.351562 269.164062 29.917969 269.617188 29.523438 C 270.066406 29.125 270.554688 28.777344 271.074219 28.480469 C 271.59375 28.179688 272.136719 27.933594 272.707031 27.738281 C 273.273438 27.546875 273.855469 27.410156 274.449219 27.328125 C 275.042969 27.25 275.640625 27.230469 276.242188 27.265625 C 276.839844 27.304688 277.429688 27.398438 278.007812 27.554688 C 278.589844 27.707031 279.148438 27.914062 279.6875 28.179688 C 280.226562 28.441406 280.738281 28.753906 281.214844 29.117188 C 281.691406 29.480469 282.132812 29.886719 282.53125 30.335938 C 282.929688 30.785156 283.277344 31.269531 283.582031 31.785156 L 304.734375 68.421875 C 305.039062 68.945312 305.285156 69.492188 305.480469 70.0625 C 305.675781 70.632812 305.8125 71.21875 305.890625 71.816406 C 305.96875 72.414062 305.988281 73.015625 305.949219 73.617188 C 305.910156 74.21875 305.816406 74.808594 305.660156 75.394531 C 305.503906 75.976562 305.292969 76.539062 305.023438 77.078125 C 304.757812 77.621094 304.441406 78.128906 304.074219 78.609375 C 303.707031 79.085938 303.296875 79.527344 302.84375 79.921875 C 302.390625 80.320312 301.902344 80.671875 301.378906 80.972656 C 300.859375 81.273438 300.3125 81.523438 299.738281 81.714844 C 299.167969 81.910156 298.582031 82.046875 297.984375 82.125 C 297.386719 82.203125 296.789062 82.222656 296.1875 82.183594 C 295.582031 82.140625 294.992188 82.042969 294.410156 81.886719 C 293.828125 81.730469 293.265625 81.519531 292.722656 81.253906 C 292.183594 80.984375 291.671875 80.667969 291.195312 80.300781 C 290.71875 79.933594 290.277344 79.523438 289.882812 79.066406 C 289.484375 78.613281 289.136719 78.125 288.835938 77.601562 Z M 195.625 103.84375 C 195.925781 103.324219 196.273438 102.835938 196.671875 102.382812 C 197.070312 101.925781 197.507812 101.515625 197.984375 101.148438 C 198.464844 100.78125 198.972656 100.464844 199.511719 100.199219 C 200.054688 99.929688 200.617188 99.71875 201.199219 99.5625 C 201.78125 99.40625 202.375 99.308594 202.976562 99.269531 C 203.578125 99.230469 204.175781 99.25 204.773438 99.328125 C 205.375 99.40625 205.957031 99.542969 206.527344 99.738281 C 207.101562 99.929688 207.648438 100.179688 208.167969 100.480469 L 244.804688 121.632812 C 245.328125 121.933594 245.816406 122.28125 246.269531 122.679688 C 246.722656 123.078125 247.132812 123.515625 247.5 123.992188 C 247.867188 124.472656 248.183594 124.980469 248.449219 125.519531 C 248.714844 126.0625 248.925781 126.621094 249.082031 127.207031 C 249.238281 127.789062 249.335938 128.378906 249.375 128.980469 C 249.417969 129.582031 249.398438 130.183594 249.316406 130.78125 C 249.238281 131.378906 249.101562 131.960938 248.910156 132.53125 C 248.714844 133.101562 248.46875 133.648438 248.167969 134.171875 C 247.867188 134.691406 247.515625 135.179688 247.117188 135.632812 C 246.722656 136.085938 246.285156 136.496094 245.804688 136.863281 C 245.328125 137.230469 244.816406 137.546875 244.277344 137.816406 C 243.738281 138.082031 243.175781 138.292969 242.59375 138.449219 C 242.011719 138.605469 241.417969 138.703125 240.816406 138.742188 C 240.214844 138.78125 239.617188 138.761719 239.019531 138.683594 C 238.421875 138.605469 237.835938 138.46875 237.265625 138.273438 C 236.695312 138.082031 236.148438 137.832031 235.625 137.53125 L 198.988281 116.382812 C 198.464844 116.082031 197.976562 115.730469 197.523438 115.332031 C 197.070312 114.9375 196.660156 114.5 196.292969 114.019531 C 195.925781 113.542969 195.609375 113.03125 195.34375 112.492188 C 195.078125 111.953125 194.867188 111.390625 194.710938 110.808594 C 194.554688 110.226562 194.457031 109.632812 194.417969 109.03125 C 194.378906 108.429688 194.398438 107.832031 194.476562 107.234375 C 194.554688 106.636719 194.691406 106.050781 194.886719 105.480469 C 195.078125 104.910156 195.328125 104.363281 195.628906 103.839844 Z M 168.023438 206.859375 C 168.023438 206.257812 168.082031 205.660156 168.203125 205.070312 C 168.320312 204.480469 168.492188 203.90625 168.722656 203.347656 C 168.953125 202.789062 169.238281 202.261719 169.570312 201.761719 C 169.90625 201.257812 170.289062 200.796875 170.714844 200.371094 C 171.140625 199.945312 171.605469 199.5625 172.105469 199.226562 C 172.605469 198.894531 173.136719 198.609375 173.691406 198.378906 C 174.25 198.148438 174.824219 197.976562 175.414062 197.855469 C 176.003906 197.738281 176.601562 197.679688 177.203125 197.679688 L 219.507812 197.679688 C 220.109375 197.679688 220.707031 197.738281 221.296875 197.855469 C 221.890625 197.976562 222.464844 198.148438 223.019531 198.378906 C 223.578125 198.609375 224.105469 198.894531 224.605469 199.226562 C 225.109375 199.5625 225.570312 199.945312 226 200.371094 C 226.425781 200.796875 226.804688 201.257812 227.140625 201.761719 C 227.476562 202.261719 227.757812 202.789062 227.988281 203.347656 C 228.21875 203.90625 228.394531 204.480469 228.511719 205.070312 C 228.628906 205.660156 228.6875 206.257812 228.6875 206.859375 C 228.6875 207.464844 228.628906 208.058594 228.511719 208.652344 C 228.394531 209.242188 228.21875 209.816406 227.988281 210.375 C 227.757812 210.929688 227.476562 211.460938 227.140625 211.960938 C 226.804688 212.460938 226.425781 212.925781 226 213.351562 C 225.570312 213.777344 225.109375 214.160156 224.605469 214.492188 C 224.105469 214.828125 223.578125 215.109375 223.019531 215.339844 C 222.464844 215.570312 221.890625 215.746094 221.296875 215.863281 C 220.707031 215.980469 220.109375 216.039062 219.507812 216.039062 L 177.203125 216.039062 C 176.601562 216.039062 176.003906 215.980469 175.414062 215.863281 C 174.824219 215.746094 174.25 215.570312 173.691406 215.339844 C 173.136719 215.109375 172.605469 214.828125 172.105469 214.492188 C 171.605469 214.160156 171.140625 213.777344 170.714844 213.351562 C 170.289062 212.925781 169.90625 212.460938 169.570312 211.960938 C 169.238281 211.460938 168.953125 210.929688 168.722656 210.375 C 168.492188 209.816406 168.320312 209.242188 168.203125 208.652344 C 168.082031 208.058594 168.023438 207.464844 168.023438 206.859375 Z M 443.390625 68.421875 L 464.542969 31.785156 C 464.839844 31.257812 465.191406 30.769531 465.585938 30.308594 C 465.984375 29.851562 466.417969 29.4375 466.898438 29.066406 C 467.375 28.695312 467.886719 28.375 468.429688 28.105469 C 468.96875 27.835938 469.535156 27.621094 470.117188 27.464844 C 470.703125 27.304688 471.296875 27.203125 471.898438 27.164062 C 472.503906 27.121094 473.105469 27.140625 473.707031 27.21875 C 474.304688 27.296875 474.894531 27.433594 475.464844 27.628906 C 476.039062 27.820312 476.589844 28.070312 477.113281 28.371094 C 477.636719 28.675781 478.125 29.027344 478.582031 29.425781 C 479.035156 29.824219 479.449219 30.265625 479.816406 30.746094 C 480.183594 31.226562 480.5 31.738281 480.765625 32.28125 C 481.03125 32.828125 481.242188 33.390625 481.398438 33.976562 C 481.550781 34.5625 481.648438 35.15625 481.683594 35.761719 C 481.722656 36.363281 481.699219 36.964844 481.617188 37.566406 C 481.535156 38.167969 481.394531 38.753906 481.199219 39.324219 C 481 39.894531 480.746094 40.441406 480.441406 40.964844 L 459.289062 77.601562 C 458.988281 78.125 458.640625 78.609375 458.242188 79.0625 C 457.84375 79.515625 457.40625 79.925781 456.929688 80.292969 C 456.449219 80.65625 455.941406 80.972656 455.398438 81.238281 C 454.859375 81.507812 454.296875 81.71875 453.714844 81.871094 C 453.132812 82.027344 452.542969 82.125 451.941406 82.164062 C 451.339844 82.203125 450.742188 82.183594 450.144531 82.105469 C 449.546875 82.027344 448.964844 81.890625 448.394531 81.695312 C 447.824219 81.503906 447.277344 81.253906 446.753906 80.953125 C 446.234375 80.652344 445.746094 80.304688 445.292969 79.90625 C 444.839844 79.511719 444.429688 79.074219 444.0625 78.59375 C 443.695312 78.117188 443.378906 77.609375 443.113281 77.066406 C 442.847656 76.527344 442.636719 75.96875 442.480469 75.386719 C 442.324219 74.804688 442.226562 74.210938 442.183594 73.609375 C 442.144531 73.011719 442.164062 72.410156 442.242188 71.8125 C 442.320312 71.214844 442.457031 70.632812 442.648438 70.0625 C 442.84375 69.492188 443.089844 68.945312 443.390625 68.421875 Z M 499.960938 134.171875 C 499.660156 133.652344 499.414062 133.105469 499.21875 132.535156 C 499.023438 131.960938 498.886719 131.378906 498.808594 130.78125 C 498.730469 130.179688 498.710938 129.582031 498.75 128.980469 C 498.789062 128.378906 498.886719 127.785156 499.042969 127.203125 C 499.199219 126.621094 499.414062 126.058594 499.679688 125.519531 C 499.945312 124.976562 500.265625 124.46875 500.632812 123.988281 C 501 123.511719 501.410156 123.074219 501.863281 122.675781 C 502.316406 122.277344 502.804688 121.929688 503.328125 121.628906 L 539.964844 100.476562 C 540.484375 100.171875 541.03125 99.917969 541.605469 99.722656 C 542.175781 99.523438 542.761719 99.382812 543.363281 99.300781 C 543.960938 99.21875 544.5625 99.195312 545.167969 99.234375 C 545.773438 99.269531 546.367188 99.367188 546.953125 99.519531 C 547.539062 99.675781 548.101562 99.886719 548.644531 100.152344 C 549.1875 100.417969 549.703125 100.734375 550.183594 101.105469 C 550.664062 101.472656 551.101562 101.882812 551.503906 102.335938 C 551.902344 102.792969 552.253906 103.28125 552.554688 103.804688 C 552.859375 104.332031 553.105469 104.878906 553.300781 105.453125 C 553.496094 106.027344 553.632812 106.613281 553.710938 107.210938 C 553.785156 107.8125 553.804688 108.414062 553.765625 109.019531 C 553.722656 109.621094 553.625 110.21875 553.464844 110.800781 C 553.304688 111.386719 553.09375 111.949219 552.820312 112.488281 C 552.550781 113.03125 552.230469 113.542969 551.859375 114.019531 C 551.488281 114.5 551.074219 114.9375 550.617188 115.332031 C 550.160156 115.730469 549.667969 116.078125 549.144531 116.375 L 512.507812 137.527344 C 511.984375 137.832031 511.4375 138.078125 510.867188 138.273438 C 510.296875 138.464844 509.710938 138.601562 509.113281 138.679688 C 508.515625 138.761719 507.914062 138.78125 507.3125 138.738281 C 506.710938 138.699219 506.121094 138.601562 505.539062 138.445312 C 504.953125 138.289062 504.394531 138.078125 503.851562 137.8125 C 503.3125 137.542969 502.800781 137.226562 502.324219 136.859375 C 501.84375 136.492188 501.40625 136.082031 501.011719 135.628906 C 500.613281 135.171875 500.261719 134.683594 499.960938 134.164062 Z M 528.617188 197.679688 L 570.921875 197.679688 C 571.523438 197.679688 572.121094 197.738281 572.710938 197.855469 C 573.304688 197.976562 573.878906 198.148438 574.433594 198.378906 C 574.992188 198.609375 575.519531 198.894531 576.023438 199.226562 C 576.523438 199.5625 576.988281 199.945312 577.414062 200.371094 C 577.839844 200.796875 578.21875 201.257812 578.554688 201.761719 C 578.890625 202.261719 579.171875 202.789062 579.402344 203.347656 C 579.632812 203.90625 579.808594 204.480469 579.925781 205.070312 C 580.042969 205.660156 580.101562 206.257812 580.101562 206.859375 C 580.101562 207.464844 580.042969 208.058594 579.925781 208.652344 C 579.808594 209.242188 579.632812 209.816406 579.402344 210.375 C 579.171875 210.929688 578.890625 211.460938 578.554688 211.960938 C 578.21875 212.460938 577.839844 212.925781 577.414062 213.351562 C 576.988281 213.777344 576.523438 214.160156 576.023438 214.492188 C 575.519531 214.828125 574.992188 215.109375 574.433594 215.339844 C 573.878906 215.570312 573.304688 215.746094 572.710938 215.863281 C 572.121094 215.980469 571.523438 216.039062 570.921875 216.039062 L 528.617188 216.039062 C 528.015625 216.039062 527.417969 215.980469 526.828125 215.863281 C 526.234375 215.746094 525.660156 215.570312 525.105469 215.339844 C 524.546875 215.109375 524.019531 214.828125 523.519531 214.492188 C 523.015625 214.160156 522.554688 213.777344 522.125 213.351562 C 521.699219 212.925781 521.320312 212.460938 520.984375 211.960938 C 520.648438 211.460938 520.367188 210.929688 520.136719 210.375 C 519.90625 209.816406 519.730469 209.242188 519.613281 208.652344 C 519.496094 208.058594 519.4375 207.464844 519.4375 206.859375 C 519.4375 206.257812 519.496094 205.660156 519.613281 205.070312 C 519.730469 204.480469 519.90625 203.90625 520.136719 203.347656 C 520.367188 202.789062 520.648438 202.261719 520.984375 201.761719 C 521.320312 201.257812 521.699219 200.796875 522.125 200.371094 C 522.554688 199.945312 523.015625 199.5625 523.519531 199.226562 C 524.019531 198.894531 524.546875 198.609375 525.105469 198.378906 C 525.660156 198.148438 526.234375 197.976562 526.828125 197.855469 C 527.417969 197.738281 528.015625 197.679688 528.617188 197.679688 Z M 528.617188 197.679688 "/></g><g transform="matrix(1,0,0,1,0,-0.000000000000042435)"><g clip-path="url(#7d774f8824)"><g style="fill:#000000;fill-opacity:1;"><g transform="translate(-6.802569, 13.050274)"><path style="stroke:none" d="M 6.859375 -1.609375 L 7.34375 -0.53125 C 7.101562 -0.289062 6.785156 -0.113281 6.390625 0 C 6.003906 0.125 5.585938 0.1875 5.140625 0.1875 C 3.203125 0.1875 2.234375 -0.789062 2.234375 -2.75 L 2.234375 -8.921875 L 0.453125 -8.921875 L 0.453125 -10.15625 L 2.234375 -10.15625 L 2.234375 -12.296875 L 3.71875 -12.546875 L 3.71875 -10.15625 L 7 -10.15625 L 7 -8.921875 L 3.71875 -8.921875 L 3.71875 -2.890625 C 3.71875 -1.734375 4.226562 -1.15625 5.25 -1.15625 C 5.800781 -1.15625 6.273438 -1.304688 6.671875 -1.609375 Z M 6.859375 -1.609375 "/></g></g></g></g></g></svg>